<svg width="25" height="25" viewBox="0 0 25 25" fill="none" xmlns="http://www.w3.org/2000/svg">
<path d="M17.4129 6.31107H15.9492C14.5075 6.31107 14.0579 7.20641 14.0579 8.12503V10.303H17.2766L16.7623 13.6592H14.0581V21.7727H10.4312V13.6592H7.48433V10.303H10.4312V7.74464C10.4312 4.83483 12.1637 3.22684 14.815 3.22684C16.0849 3.22684 17.4131 3.45379 17.4131 3.45379V6.31128L17.4129 6.31107ZM12.4949 0C5.59447 0 0 5.59676 0 12.5002C0 19.4033 5.59447 25 12.4949 25C19.3954 25 24.9899 19.4033 24.9899 12.5002C24.9899 5.59676 19.3954 0 12.4949 0Z" fill="#DCF343"/>
</svg>
