<svg width="26" height="25" viewBox="0 0 26 25" fill="none" xmlns="http://www.w3.org/2000/svg">
<path d="M17.502 9.40531C17.0114 9.40531 16.6137 9.00822 16.6137 8.51763C16.6137 8.02726 17.0114 7.62934 17.502 7.62934C17.9926 7.62934 18.3904 8.02726 18.3904 8.51763C18.3904 9.00822 17.9926 9.40531 17.502 9.40531ZM13.5526 16.2317C11.4948 16.2317 9.82078 14.5571 9.82078 12.5002C9.82078 10.4422 11.4946 8.76765 13.5526 8.76765C15.6105 8.76765 17.2843 10.442 17.2843 12.5002C17.2843 14.5569 15.6107 16.2317 13.5526 16.2317ZM16.5157 6.34863H10.4653C8.74179 6.34863 7.33936 7.75102 7.33936 9.47448V15.5247C7.33936 17.2492 8.742 18.6503 10.4653 18.6503H16.5157C18.2392 18.6503 19.6414 17.249 19.6414 15.5247V9.47448C19.6414 7.7508 18.239 6.34863 16.5157 6.34863Z" fill="#DCF343"/>
<path d="M13.5464 10.1099C12.2291 10.1099 11.1572 11.1818 11.1572 12.5005C11.1572 13.8181 12.2291 14.8904 13.5464 14.8904C14.8638 14.8904 15.9357 13.8181 15.9357 12.5005C15.9357 11.1816 14.8638 10.1099 13.5464 10.1099Z" fill="#DCF343"/>
<path d="M21.0666 15.5247C21.0666 18.035 19.0245 20.0764 16.5149 20.0764H10.4646C7.95495 20.0764 5.91289 18.035 5.91289 15.5247V9.47449C5.91289 6.96497 7.95495 4.92296 10.4646 4.92296H16.5149C19.0245 4.92296 21.0666 6.96497 21.0666 9.47449V15.5247ZM13.4902 0C6.58582 0 0.989746 5.59676 0.989746 12.5002C0.989746 19.4033 6.58582 25 13.4902 25C20.3937 25 25.9897 19.4033 25.9897 12.5002C25.9897 5.59676 20.3937 0 13.4902 0Z" fill="#DCF343"/>
</svg>
